<?xml version="1.0" encoding="UTF-8"?><svg id="Layer_1" xmlns="http://www.w3.org/2000/svg" viewBox="0 0 700 700"><path d="M350,0C156.95,0,0,156.95,0,350s156.95,350,350,350,350-156.95,350-350S543.05,0,350,0Zm175.37,224.74l-79.58,199.68c-3.69,9.58-11.79,17.69-21.37,21.37l-199.68,79.58c-30.95,12.53-61.89-18.42-49.37-49.37l78.84-200.42c3.69-9.58,11.79-17.69,21.37-21.37l199.68-78.84c30.95-12.53,61.89,18.42,50.11,49.37h0Z"/><path d="M396.42,350c0,25.64-20.79,46.42-46.42,46.42s-46.42-20.79-46.42-46.42,20.79-46.42,46.42-46.42,46.42,20.79,46.42,46.42"/></svg>