<svg width="124" height="42" viewBox="0 0 124 42" fill="none" xmlns="http://www.w3.org/2000/svg"><path d="M0 18.8383C0.00910707 17.4457 0.315547 16.0705 0.899487 14.8017C1.4549 13.5616 2.24468 12.4363 3.22691 11.4857C4.21167 10.5477 5.36542 9.79808 6.62922 9.27511C7.9369 8.72953 9.34293 8.44836 10.7635 8.44836C12.1841 8.44836 13.5901 8.72953 14.8978 9.27511C16.1675 9.81327 17.3203 10.5863 18.2933 11.5521C19.2658 12.5189 20.0439 13.6574 20.587 14.9078C21.145 16.2038 21.4325 17.5968 21.4325 19.0041C21.4325 20.4114 21.145 21.8044 20.587 23.1004C19.4945 25.6188 17.4523 27.6233 14.8888 28.6933C12.7733 29.5762 10.4237 29.7615 8.19208 29.2216C7.3792 29.0227 6.59224 28.7327 5.84667 28.3573V33.7556C5.84956 34.1568 5.77872 34.5552 5.63754 34.9317C5.50658 35.2854 5.30899 35.6116 5.05512 35.8933C4.80477 36.166 4.49812 36.3831 4.15563 36.53C3.78705 36.6819 3.39044 36.7572 2.9908 36.751C2.60129 36.7547 2.21508 36.6806 1.85559 36.5332C1.4961 36.3857 1.17082 36.168 0.899487 35.8933C0.624692 35.6147 0.404397 35.2887 0.249608 34.9317C0.0854436 34.5606 0.000488899 34.1603 0 33.7556L0 18.8383ZM5.86241 19.0107C5.85771 19.6493 5.98868 20.2817 6.24694 20.8677C6.75213 22.0103 7.68899 22.9155 8.85995 23.3922C9.74704 23.7602 10.7255 23.8603 11.6707 23.6796C12.6158 23.4989 13.4848 23.0456 14.1669 22.3775C14.608 21.943 14.9619 21.4308 15.2103 20.8677C15.464 20.2803 15.5948 19.6488 15.5948 19.0107C15.5948 18.3726 15.464 17.7411 15.2103 17.1538C14.9614 16.5903 14.6075 16.0775 14.1669 15.6417C13.4818 14.9785 12.6129 14.5285 11.669 14.348C10.7251 14.1675 9.74805 14.2646 8.85995 14.627C8.27976 14.8651 7.75091 15.2094 7.30159 15.6417C6.85473 16.0747 6.49668 16.588 6.24694 17.1538C5.98849 17.7397 5.85751 18.3722 5.86241 19.0107Z" fill="#01B6AF"></path><path d="M24.0141 3.64018C24.0096 3.22765 24.0955 2.819 24.2659 2.44201C24.4287 2.08014 24.6574 1.75051 24.9406 1.46934C25.2262 1.18737 25.5644 0.9622 25.9367 0.806148C26.3184 0.650059 26.7276 0.569702 27.1409 0.569702C27.5543 0.569702 27.9635 0.650059 28.3451 0.806148C28.7171 0.96166 29.0547 1.18692 29.3391 1.46934C29.6221 1.75061 29.8507 2.08021 30.0137 2.44201C30.1841 2.819 30.27 3.22765 30.2655 3.64018C30.2678 4.04892 30.182 4.45351 30.0137 4.82728C29.8526 5.19269 29.6238 5.52551 29.3391 5.8088C29.0547 6.09122 28.7171 6.31648 28.3451 6.47199C27.9635 6.62808 27.5543 6.70844 27.1409 6.70844C26.7276 6.70844 26.3184 6.62808 25.9367 6.47199C25.5644 6.31594 25.2262 6.09077 24.9406 5.8088C24.6557 5.52561 24.4269 5.19277 24.2659 4.82728C24.0976 4.45351 24.0118 4.04892 24.0141 3.64018ZM24.1895 11.3044C24.188 10.9233 24.27 10.5463 24.4301 10.1991C24.5863 9.86035 24.8052 9.55303 25.0755 9.29276C25.3502 9.03061 25.6729 8.82207 26.0267 8.6782C26.3945 8.52879 26.7891 8.45362 27.187 8.45714C27.5734 8.45261 27.9565 8.52793 28.3114 8.6782C28.649 8.82363 28.9545 9.03238 29.2109 9.29276C29.4667 9.55545 29.6704 9.86285 29.8113 10.1991C29.9602 10.5492 30.0367 10.925 30.0362 11.3044V26.6749C30.041 27.0548 29.9643 27.4314 29.8113 27.7803C29.5142 28.4619 28.963 29.0061 28.2709 29.3012C27.9163 29.4525 27.5331 29.5278 27.1466 29.5222C26.7603 29.5255 26.3775 29.4503 26.0222 29.3012C25.3221 29.0061 24.7603 28.4633 24.4481 27.7803C24.288 27.4331 24.206 27.0561 24.2075 26.6749L24.1895 11.3044Z" fill="#01B6AF"></path><path d="M62.402 21.575C62.8507 22.3037 63.4766 22.9114 64.2234 23.3435C64.9671 23.7799 65.8175 24.0092 66.6835 24.0067C67.1451 24.0191 67.6064 23.9716 68.0553 23.8652C68.3818 23.7798 68.6955 23.6527 68.9885 23.4872C69.2561 23.3129 69.5486 23.1788 69.8565 23.0892C70.1239 23.0123 70.4009 22.9721 70.6795 22.9699C71.0674 22.9671 71.4511 23.0479 71.8039 23.2064C72.1434 23.3632 72.4488 23.5832 72.7033 23.8541C72.9611 24.1325 73.1653 24.4546 73.306 24.8047C73.4535 25.1614 73.5299 25.5427 73.5309 25.9277C73.5293 26.4216 73.3842 26.9048 73.1126 27.3204C72.7914 27.7993 72.354 28.192 71.8398 28.4633C71.1691 28.8248 70.4477 29.087 69.6991 29.2414C68.7081 29.4492 67.6966 29.5471 66.6835 29.5332C65.2461 29.5409 63.8224 29.258 62.5009 28.702C61.2205 28.1663 60.0541 27.3983 59.0626 26.4384C58.0769 25.4822 57.2868 24.349 56.7352 23.1003C56.1605 21.8114 55.8686 20.4179 55.8784 19.0106C55.868 17.5926 56.1598 16.1882 56.7352 14.8878C57.2873 13.6335 58.0772 12.4939 59.0626 11.5299C60.0506 10.5679 61.218 9.80233 62.5009 9.27502C63.8194 8.73615 65.2332 8.45874 66.661 8.45874C68.0889 8.45874 69.5027 8.73615 70.8212 9.27502C72.089 9.79662 73.2437 10.5514 74.2235 11.4989C75.204 12.4514 75.9941 13.5762 76.5532 14.8149C77.1337 16.0922 77.4435 17.4724 77.4639 18.8714C77.4802 19.2379 77.417 19.6036 77.2786 19.9444C77.1402 20.2851 76.9297 20.593 76.6611 20.8477C76.0952 21.349 75.3509 21.6104 74.59 21.575H62.402ZM71.471 16.7823C71.0714 15.9316 70.4313 15.2118 69.6271 14.7087C68.7774 14.1843 67.79 13.9161 66.787 13.9372C65.7866 13.9083 64.8026 14.1916 63.9761 14.7463C63.2189 15.264 62.6127 15.9675 62.2176 16.7867L71.471 16.7823Z" fill="#01B6AF"></path><path d="M78.948 19.0107C78.9387 17.6004 79.2266 16.2034 79.7936 14.9078C80.8915 12.382 82.9359 10.3683 85.5031 9.28395C86.8214 8.73541 88.2384 8.45276 89.6699 8.45276C91.1015 8.45276 92.5185 8.73541 93.8368 9.28395C95.1093 9.81811 96.2652 10.5882 97.2414 11.5521C98.2145 12.5183 98.9928 13.6569 99.5351 14.9078C100.093 16.2038 100.381 17.5968 100.381 19.0041C100.381 20.4114 100.093 21.8044 99.5351 23.1004C98.4426 25.6188 96.4003 27.6233 93.8368 28.6933C92.5185 29.2418 91.1015 29.5245 89.6699 29.5245C88.2384 29.5245 86.8214 29.2418 85.5031 28.6933C84.2352 28.158 83.081 27.3931 82.1007 26.4384C81.1214 25.482 80.3382 24.3496 79.7936 23.1026C79.2254 21.8113 78.9374 20.4176 78.948 19.0107ZM84.7947 19.0107C84.79 19.6493 84.921 20.2817 85.1792 20.8676C85.6861 22.0076 86.6203 22.9118 87.7878 23.3922C88.3795 23.6384 89.0161 23.7632 89.6587 23.7592C90.3122 23.7636 90.9599 23.6388 91.5634 23.3922C92.1432 23.1584 92.6699 22.8135 93.1127 22.3775C93.5551 21.9437 93.91 21.4313 94.1584 20.8676C94.4136 20.2807 94.5452 19.649 94.5452 19.0107C94.5452 18.3724 94.4136 17.7407 94.1584 17.1538C93.9094 16.5897 93.5547 16.0768 93.1127 15.6417C92.6687 15.2072 92.1423 14.8625 91.5634 14.627C90.9596 14.3816 90.3121 14.2568 89.6587 14.2601C89.0163 14.2572 88.3799 14.382 87.7878 14.627C87.2102 14.8663 86.6838 15.2105 86.2361 15.6417C85.7886 16.0746 85.4298 16.5879 85.1792 17.1538C84.9193 17.7393 84.7867 18.3718 84.7902 19.0107H84.7947Z" fill="#01B6AF"></path><path d="M102.173 18.7012C102.164 17.3336 102.442 15.9788 102.991 14.7221C104.059 12.2676 106.047 10.312 108.543 9.26183C109.821 8.71789 111.199 8.44159 112.591 8.45053C114.006 8.44332 115.407 8.72014 116.709 9.26404C117.973 9.78905 119.129 10.5384 120.118 11.4747C121.096 12.4012 121.885 13.5036 122.441 14.7221C123.012 15.9729 123.305 17.3299 123.297 18.7012V26.4738C123.299 26.8534 123.222 27.2293 123.072 27.5791C122.931 27.912 122.724 28.2141 122.463 28.4679C122.202 28.7218 121.892 28.9223 121.552 29.058C121.196 29.204 120.814 29.2791 120.428 29.2791C120.031 29.2802 119.638 29.2051 119.27 29.058C118.919 28.9201 118.598 28.7183 118.323 28.4634C118.052 28.2132 117.834 27.9126 117.682 27.5791C117.529 27.2302 117.453 26.8537 117.457 26.4738V18.73C117.446 18.1234 117.3 17.5267 117.03 16.9813C116.761 16.4396 116.391 15.9522 115.939 15.5444C115.484 15.134 114.959 14.8055 114.388 14.574C113.812 14.3379 113.195 14.2169 112.571 14.2181C111.964 14.2134 111.361 14.3268 110.799 14.5519C110.265 14.7658 109.779 15.0813 109.369 15.4803C108.962 15.8822 108.633 16.3543 108.4 16.873C108.156 17.4178 108.026 18.0047 108.015 18.5995V26.4804C108.017 26.86 107.94 27.236 107.79 27.5857C107.648 27.918 107.439 28.2187 107.176 28.47C106.917 28.7216 106.612 28.9233 106.277 29.0647C105.927 29.2117 105.551 29.2869 105.17 29.2857C104.781 29.2848 104.395 29.2097 104.035 29.0647C103.679 28.9264 103.352 28.7248 103.07 28.47C102.795 28.2199 102.572 27.9195 102.413 27.5857C102.253 27.2388 102.172 26.8616 102.175 26.4804L102.173 18.7012Z" fill="#01B6AF"></path><path d="M47.9292 33.7556V28.3572C47.1828 28.7326 46.3951 29.0226 45.5816 29.2216C44.7485 29.4276 43.8928 29.5322 43.0338 29.5333C41.6066 29.5398 40.1935 29.2568 38.8826 28.7021C36.3191 27.6321 34.2769 25.6275 33.1844 23.1092C32.6264 21.8132 32.3389 20.4202 32.3389 19.0129C32.3389 17.6056 32.6264 16.2126 33.1844 14.9166C33.7283 13.6666 34.5064 12.5283 35.4781 11.5608C36.4538 10.5941 37.6097 9.82108 38.8826 9.2839C40.1903 8.73832 41.5963 8.45715 43.0169 8.45715C44.4375 8.45715 45.8435 8.73832 47.1512 9.2839C48.4153 9.80623 49.5692 10.5559 50.5535 11.4945C51.5364 12.445 52.3269 13.5703 52.8832 14.8105C53.4665 16.0795 53.7729 17.4546 53.7826 18.8471V31.4897L47.9292 33.7556ZM47.5245 17.1537C47.0203 16.0098 46.0832 15.1036 44.9114 14.627C44.0246 14.2594 43.0466 14.1596 42.1019 14.3403C41.1572 14.521 40.2886 14.974 39.6067 15.6417C39.1662 16.0774 38.8123 16.5902 38.5633 17.1537C38.311 17.7414 38.181 18.3728 38.181 19.0107C38.181 19.6485 38.311 20.2799 38.5633 20.8676C38.8117 21.4308 39.1657 21.9429 39.6067 22.3775C40.2917 23.0403 41.1601 23.49 42.1036 23.6705C43.047 23.8509 44.0236 23.7541 44.9114 23.3921C46.0824 22.9154 47.0193 22.0103 47.5245 20.8676C47.7782 20.2803 47.9089 19.6487 47.9089 19.0107C47.9089 18.3726 47.7782 17.7411 47.5245 17.1537Z" fill="#01B6AF"></path><path d="M53.7714 31.4809C53.7714 31.5273 53.7174 31.7882 53.7174 31.7882C53.6441 33.1661 53.2876 34.5152 52.6695 35.7541C52.0578 36.9084 51.2301 37.9389 50.2297 38.7915C49.2244 39.6396 48.0677 40.297 46.8184 40.7302C45.5271 41.1756 44.1578 41.3609 42.7921 41.2751C41.4264 41.1893 40.0922 40.834 38.8691 40.2306L39.9553 34.1602C40.3527 34.6014 40.833 34.9632 41.3697 35.2257C42.5004 35.7661 43.8024 35.8456 44.9924 35.4468C46.1478 35.0571 47.104 34.2415 47.6594 33.172C47.9427 32.6326 47.8843 31.8457 47.9292 31.2068" fill="#01B6AF"></path><path d="M38.8692 40.2305C38.1959 39.8143 37.5655 39.3345 36.987 38.798C36.6882 38.5786 36.4165 38.3256 36.1774 38.0442C35.973 37.7514 35.8259 37.4238 35.7434 37.0781C35.6624 36.733 35.6487 36.376 35.703 36.0259C35.7578 35.6667 35.888 35.3227 36.0852 35.0156C36.2828 34.7041 36.5429 34.4355 36.8498 34.2264C37.4549 33.8114 38.1964 33.6347 38.9276 33.7312C39.2972 33.8009 39.6476 33.9471 39.9553 34.1601" fill="#01B6AF"></path></svg>